<?xml version="1.0" standalone="no" ?>
<!DOCTYPE svg PUBLIC "-//W3C//DTD SVG 1.1//EN" "http://www.w3.org/Graphics/SVG/1.1/DTD/svg11.dtd">
<svg width="181px" height="156px" viewBox="0 0 181 156" style="background-color: #ffffff00" xmlns="http://www.w3.org/2000/svg" xmlns:xlink="http://www.w3.org/1999/xlink" version="1.1" >
<path stroke="none" fill="#000000" transform="matrix(0.05 0 0 0.05 -69 -273)" d="M 2896.63,7160.51 L 2884.6,7167.46 L 2884.6,6908.23 L 2890.61,6876.02 L 2896.63,6879.49 L 2896.63,7160.51 Z " />
<path stroke="none" fill="#000000" transform="matrix(0.05 0 0 0.05 -69 -273)" d="M 2948.46,7134.06 L 2936.43,7134.06 L 2936.43,6905.94 L 2948.46,6905.94 L 2948.46,7134.06 Z " />
<path stroke="none" fill="#000000" transform="matrix(0.05 0 0 0.05 -69 -273)" d="M 3140,7301.02 L 3140,7307.97 L 3109.09,7297.07 L 2884.6,7167.46 L 2896.63,7160.51 L 3140,7301.02 Z " />
<path stroke="none" fill="#000000" transform="matrix(0.05 0 0 0.05 -69 -273)" d="M 3383.37,7160.51 L 3389.39,7163.98 L 3389.39,7170.93 L 3170.91,7297.07 L 3140,7307.97 L 3140,7301.02 L 3383.37,7160.51 Z " />
<path stroke="none" fill="#000000" transform="matrix(0.05 0 0 0.05 -69 -273)" d="M 3334.55,7128.85 L 3340.56,7139.27 L 3143.01,7253.33 L 3136.99,7242.91 L 3334.55,7128.85 Z " />
<path stroke="none" fill="#000000" transform="matrix(0.05 0 0 0.05 -69 -273)" d="M 3383.37,6879.49 L 3389.39,6876.02 L 3395.4,6879.49 L 3395.4,7160.51 L 3389.39,7163.98 L 3383.37,7160.51 L 3383.37,6879.49 Z " />
<path stroke="none" fill="#000000" transform="matrix(0.05 0 0 0.05 -69 -273)" d="M 3140,6738.98 L 3140,6732.03 L 3146.02,6728.56 L 3389.39,6869.07 L 3389.39,6876.02 L 3383.37,6879.49 L 3140,6738.98 Z " />
<path stroke="none" fill="#000000" transform="matrix(0.05 0 0 0.05 -69 -273)" d="M 3136.99,6797.09 L 3143.01,6786.67 L 3340.56,6900.73 L 3334.55,6911.15 L 3136.99,6797.09 Z " />
<path stroke="none" fill="#000000" transform="matrix(0.05 0 0 0.05 -69 -273)" d="M 2896.63,6879.49 L 2890.61,6876.02 L 2915.5,6854.7 L 3133.98,6728.56 L 3140,6732.03 L 3140,6738.98 L 2896.63,6879.49 Z " />
<path stroke="none" fill="#000000" transform="matrix(0.05 0 0 0.05 -69 -273)" d="M 3638.78,7301.02 L 3638.78,7314.91 L 3389.39,7170.93 L 3389.39,7163.98 L 3395.4,7160.51 L 3638.78,7301.02 Z " />
<path stroke="none" fill="#000000" transform="matrix(0.05 0 0 0.05 -69 -273)" d="M 3882.15,7160.51 L 3888.16,7163.98 L 3888.16,7170.93 L 3638.78,7314.91 L 3638.78,7301.02 L 3882.15,7160.51 Z " />
<path stroke="none" fill="#000000" transform="matrix(0.05 0 0 0.05 -69 -273)" d="M 3882.15,6879.49 L 3888.16,6876.02 L 3894.18,6879.49 L 3894.18,7160.51 L 3888.16,7163.98 L 3882.15,7160.51 L 3882.15,6879.49 Z " />
<path stroke="none" fill="#000000" transform="matrix(0.05 0 0 0.05 -69 -273)" d="M 3933.98,6905.94 L 3946.01,6905.94 L 3946.01,7134.06 L 3933.98,7134.06 L 3933.98,6905.94 Z " />
<path stroke="none" fill="#000000" transform="matrix(0.05 0 0 0.05 -69 -273)" d="M 3638.78,6738.98 L 3638.78,6725.09 L 3888.16,6869.07 L 3888.16,6876.02 L 3882.15,6879.49 L 3638.78,6738.98 Z " />
<path stroke="none" fill="#000000" transform="matrix(0.05 0 0 0.05 -69 -273)" d="M 3395.4,6879.49 L 3389.39,6876.02 L 3389.39,6869.07 L 3638.78,6725.09 L 3638.78,6738.98 L 3395.4,6879.49 Z " />
<path stroke="none" fill="#000000" transform="matrix(0.05 0 0 0.05 -69 -273)" d="M 4137.55,7301.02 L 4137.55,7314.91 L 3888.16,7170.93 L 3888.16,7163.98 L 3894.18,7160.51 L 4137.55,7301.02 Z " />
<path stroke="none" fill="#d59836" transform="matrix(0.05 0 0 0.05 -69 -273)" d="M 4380.93,7160.51 L 4386.94,7163.98 L 4386.94,7170.93 L 4137.55,7314.91 L 4137.55,7301.02 L 4380.93,7160.51 Z " />
<path stroke="none" fill="#d59836" transform="matrix(0.05 0 0 0.05 -69 -273)" d="M 4332.1,7128.85 L 4338.11,7139.27 L 4140.56,7253.33 L 4134.55,7242.91 L 4332.1,7128.85 Z " />
<path stroke="none" fill="#d59836" transform="matrix(0.05 0 0 0.05 -69 -273)" d="M 4380.93,6879.49 L 4386.94,6876.02 L 4392.96,6879.49 L 4392.96,7160.51 L 4386.94,7163.98 L 4380.93,7160.51 L 4380.93,6879.49 Z " />
<path stroke="none" fill="#d59836" transform="matrix(0.05 0 0 0.05 -69 -273)" d="M 4137.55,6738.98 L 4137.55,6732.03 L 4143.57,6728.56 L 4386.94,6869.07 L 4386.94,6876.02 L 4380.93,6879.49 L 4137.55,6738.98 Z " />
<path stroke="none" fill="#d59836" transform="matrix(0.05 0 0 0.05 -69 -273)" d="M 4134.55,6797.09 L 4140.56,6786.67 L 4338.11,6900.73 L 4332.1,6911.15 L 4134.55,6797.09 Z " />
<path stroke="none" fill="#000000" transform="matrix(0.05 0 0 0.05 -69 -273)" d="M 3894.18,6879.49 L 3888.16,6876.02 L 3888.16,6869.07 L 4131.54,6728.56 L 4137.55,6732.03 L 4137.55,6738.98 L 3894.18,6879.49 Z " />
<text x="0" y="0" stroke="none" fill="#d59836" transform="matrix(0.05 0 0 0.05 133.988 52.7896)" font-style="normal" font-weight="normal" font-size="200px" font-family="Helvetica" >
O</text>
<path stroke="none" fill="#d59836" transform="matrix(0.05 0 0 0.05 -69 -273)" d="M 4630.31,6728.56 L 4642.35,6735.5 L 4392.96,6879.49 L 4386.94,6876.02 L 4386.94,6869.07 L 4630.31,6728.56 Z " />
<path stroke="none" fill="#d59836" transform="matrix(0.05 0 0 0.05 -69 -273)" d="M 4630.31,6447.54 L 4642.35,6440.59 L 4642.35,6735.5 L 4630.31,6728.56 L 4630.31,6447.54 Z " />
<path stroke="none" fill="#d59836" transform="matrix(0.05 0 0 0.05 -69 -273)" d="M 4386.94,6307.02 L 4386.94,6300.08 L 4392.96,6296.61 L 4642.35,6440.59 L 4630.31,6447.54 L 4386.94,6307.02 Z " />
<path stroke="none" fill="#d59836" transform="matrix(0.05 0 0 0.05 -69 -273)" d="M 4383.93,6365.14 L 4389.95,6354.72 L 4587.5,6468.78 L 4581.49,6479.2 L 4383.93,6365.14 Z " />
<path stroke="none" fill="#d59836" transform="matrix(0.05 0 0 0.05 -69 -273)" d="M 4232.04,6396.46 L 4226.02,6386.04 L 4380.93,6296.61 L 4386.94,6300.08 L 4386.94,6307.02 L 4232.04,6396.46 Z " />
<path stroke="none" fill="#d59836" transform="matrix(0.05 0 0 0.05 -69 -273)" d="M 4143.57,6728.56 L 4137.55,6732.03 L 4131.54,6728.56 L 4131.54,6554.41 L 4143.57,6554.41 L 4143.57,6728.56 Z " />
<text x="0" y="0" stroke="none" fill="#000000" transform="matrix(0.05 0 0 0.05 109.05 52.7896)" font-style="normal" font-weight="normal" font-size="200px" font-family="Helvetica" >
O</text>
<path stroke="none" fill="#000000" transform="matrix(0.05 0 0 0.05 -69 -273)" d="M 3606.84,6554.41 L 3618.87,6554.41 L 3618.87,6746.99 L 3606.84,6746.99 L 3606.84,6554.41 Z " />
<path stroke="none" fill="#000000" transform="matrix(0.05 0 0 0.05 -69 -273)" d="M 3658.68,6554.41 L 3670.71,6554.41 L 3670.71,6746.99 L 3658.68,6746.99 L 3658.68,6554.41 Z " />
<text x="0" y="0" stroke="none" fill="#000000" transform="matrix(0.05 0 0 0.05 109.05 110.383)" font-style="normal" font-weight="normal" font-size="200px" font-family="Helvetica" >
O</text>
<path stroke="none" fill="#000000" transform="matrix(0.05 0 0 0.05 -69 -273)" d="M 3670.71,7490.22 L 3658.68,7490.22 L 3658.68,7293.01 L 3670.71,7293.01 L 3670.71,7490.22 Z " />
<path stroke="none" fill="#000000" transform="matrix(0.05 0 0 0.05 -69 -273)" d="M 3618.87,7490.22 L 3606.84,7490.22 L 3606.84,7293.01 L 3618.87,7293.01 L 3618.87,7490.22 Z " />
<text x="0" y="0" stroke="none" fill="#d59836" transform="matrix(0.05 0 0 0.05 158.651 95.9849)" font-style="normal" font-weight="normal" font-size="200px" font-family="Helvetica" >
Me</text>
<path stroke="none" fill="#d59836" transform="matrix(0.05 0 0 0.05 -69 -273)" d="M 4528.69,7238.88 L 4522.67,7249.3 L 4386.94,7170.93 L 4386.94,7163.98 L 4392.96,7160.51 L 4528.69,7238.88 Z " />
<text x="0" y="0" stroke="none" fill="#d59836" transform="matrix(0.05 0 0 0.05 171.397 74.3872)" font-style="normal" font-weight="normal" font-size="200px" font-family="Helvetica" >
O</text>
<path stroke="none" fill="#d59836" transform="matrix(0.05 0 0 0.05 -69 -273)" d="M 4810.37,6795.64 L 4804.35,6806.06 L 4633.32,6707.31 L 4639.34,6696.89 L 4810.37,6795.64 Z " />
<path stroke="none" fill="#d59836" transform="matrix(0.05 0 0 0.05 -69 -273)" d="M 4784.45,6840.53 L 4778.44,6850.95 L 4607.4,6752.2 L 4613.42,6741.78 L 4784.45,6840.53 Z " />
<path stroke="none" fill="#d59836" transform="matrix(0.05 0 0 0.05 -69 -273)" d="M 4380.93,6015.58 L 4386.94,6012.11 L 4392.96,6015.58 L 4392.96,6296.61 L 4386.94,6300.08 L 4380.93,6296.61 L 4380.93,6015.58 Z " />
<text x="0" y="0" stroke="none" fill="#d59836" transform="matrix(0.05 0 0 0.05 126.767 23.9927)" font-style="normal" font-weight="normal" font-size="200px" font-family="Helvetica" >
Me</text>
<path stroke="none" fill="#d59836" transform="matrix(0.05 0 0 0.05 -69 -273)" d="M 4215,5919.78 L 4221.01,5909.37 L 4386.94,6005.16 L 4386.94,6012.11 L 4380.93,6015.58 L 4215,5919.78 Z " />
<path stroke="none" fill="#d59836" transform="matrix(0.05 0 0 0.05 -69 -273)" d="M 4630.31,5864.65 L 4642.35,5871.6 L 4392.96,6015.58 L 4386.94,6012.11 L 4386.94,6005.16 L 4630.31,5864.65 Z " />
<path stroke="none" fill="#d59836" transform="matrix(0.05 0 0 0.05 -69 -273)" d="M 4581.49,5832.99 L 4587.5,5843.41 L 4389.95,5957.47 L 4383.93,5947.05 L 4581.49,5832.99 Z " />
<text x="0" y="0" stroke="none" fill="#d59836" transform="matrix(0.05 0 0 0.05 158.651 9.59424)" font-style="normal" font-weight="normal" font-size="200px" font-family="Helvetica" >
Me</text>
<path stroke="none" fill="#d59836" transform="matrix(0.05 0 0 0.05 -69 -273)" d="M 4630.31,5683.46 L 4642.35,5683.46 L 4642.35,5871.6 L 4630.31,5864.65 L 4630.31,5683.46 Z " />
<path stroke="none" fill="#00144d" transform="matrix(0.05 0 0 0.05 -69 -273)" d="M 2640.95,6739.14 L 2641.22,6732.03 L 2647.24,6728.24 L 2915.5,6854.7 L 2890.61,6876.02 L 2884.6,6908.23 L 2640.95,6739.14 Z " />
<text x="0" y="0" stroke="none" fill="#000000" transform="matrix(0.05 0 0 0.05 84.1108 52.7896)" font-style="normal" font-weight="normal" font-size="200px" font-family="Helvetica" >
OH</text>
<path stroke="none" fill="#000000" transform="matrix(0.05 0 0 0.05 -69 -273)" d="M 3133.98,6554.41 L 3146.02,6554.41 L 3146.02,6728.56 L 3140,6732.03 L 3133.98,6728.56 L 3133.98,6554.41 Z " />
<text x="0" y="0" stroke="none" fill="#00144d" transform="matrix(0.05 0 0 0.05 71.6414 117.583)" font-style="normal" font-weight="normal" font-size="200px" font-family="Helvetica" >
O</text>
<path stroke="none" fill="#00144d" transform="matrix(0.05 0 0 0.05 -69 -273)" d="M 2985.1,7692.32 L 2979.08,7681.9 L 3133.71,7592.62 L 3140,7595.94 L 3140,7602.88 L 2985.1,7692.32 Z " />
<path stroke="none" fill="#00144d" transform="matrix(0.05 0 0 0.05 -69 -273)" d="M 2896.63,8024.42 L 2890.61,8027.89 L 2884.6,8023.99 L 2884.6,7850.27 L 2896.63,7850.27 L 2896.63,8024.42 Z " />
<path stroke="none" fill="#00144d" transform="matrix(0.05 0 0 0.05 -69 -273)" d="M 3140,8164.93 L 3140,8178.82 L 2890.98,8035.05 L 2890.61,8027.89 L 2896.63,8024.42 L 3140,8164.93 Z " />
<path stroke="none" fill="#00144d" transform="matrix(0.05 0 0 0.05 -69 -273)" d="M 3383.37,8024.42 L 3389.39,8027.89 L 3388.93,8035.1 L 3140,8178.82 L 3140,8164.93 L 3383.37,8024.42 Z " />
<path stroke="none" fill="#00144d" transform="matrix(0.05 0 0 0.05 -69 -273)" d="M 3383.37,7743.39 L 3395.4,7736.45 L 3395.4,8023.89 L 3389.39,8027.89 L 3383.37,8024.42 L 3383.37,7743.39 Z " />
<path stroke="none" fill="#00144d" transform="matrix(0.05 0 0 0.05 -69 -273)" d="M 3140,7602.88 L 3140,7595.94 L 3146.29,7592.62 L 3395.4,7736.45 L 3383.37,7743.39 L 3140,7602.88 Z " />
<text x="0" y="0" stroke="none" fill="#00144d" transform="matrix(0.05 0 0 0.05 109.328 139.18)" font-style="normal" font-weight="normal" font-size="200px" font-family="Helvetica" >
NMe</text>
<text x="0" y="0" stroke="none" fill="#00144d" transform="matrix(0.05 0 0 0.05 130.441 141.48)" font-style="normal" font-weight="normal" font-size="150px" font-family="Helvetica" >
2</text>
<path stroke="none" fill="#00144d" transform="matrix(0.05 0 0 0.05 -69 -273)" d="M 3551.49,8086.84 L 3521.49,8138.8 L 3388.93,8035.1 L 3389.39,8027.89 L 3395.4,8023.89 L 3551.49,8086.84 Z " />
<text x="0" y="0" stroke="none" fill="#00144d" transform="matrix(0.05 0 0 0.05 84.1108 153.579)" font-style="normal" font-weight="normal" font-size="200px" font-family="Helvetica" >
OH</text>
<path stroke="none" fill="#00144d" transform="matrix(0.05 0 0 0.05 -69 -273)" d="M 3170,8354.13 L 3110,8354.13 L 3112.18,8342.1 L 3167.82,8342.1 L 3170,8354.13 Z " />
<path stroke="none" fill="#00144d" transform="matrix(0.05 0 0 0.05 -69 -273)" d="M 3159.1,8294.05 L 3120.9,8294.05 L 3123.08,8282.02 L 3156.92,8282.02 L 3159.1,8294.05 Z " />
<path stroke="none" fill="#00144d" transform="matrix(0.05 0 0 0.05 -69 -273)" d="M 3148.2,8233.98 L 3131.8,8233.98 L 3133.98,8221.95 L 3146.02,8221.95 L 3148.2,8233.98 Z " />
<text x="0" y="0" stroke="none" fill="#00144d" transform="matrix(0.05 0 0 0.05 51.9503 139.18)" font-style="normal" font-weight="normal" font-size="200px" font-family="Helvetica" >
Me</text>
<path stroke="none" fill="#00144d" transform="matrix(0.05 0 0 0.05 -69 -273)" d="M 2720.54,8160.72 L 2690.54,8108.76 L 2884.6,8023.99 L 2890.61,8027.89 L 2890.98,8035.05 L 2720.54,8160.72 Z " />
<path stroke="none" fill="#00144d" transform="matrix(0.05 0 0 0.05 -69 -273)" d="M 3109.09,7297.07 L 3140,7307.97 L 3170.91,7297.07 L 3146.29,7592.62 L 3140,7595.94 L 3133.71,7592.62 L 3109.09,7297.07 Z " />
<text x="0" y="0" stroke="none" fill="#00144d" transform="matrix(0.05 0 0 0.05 59.172 52.7896)" font-style="normal" font-weight="normal" font-size="200px" font-family="Helvetica" >
O</text>
<path stroke="none" fill="#00144d" transform="matrix(0.05 0 0 0.05 -69 -273)" d="M 2635.21,6554.41 L 2647.24,6554.41 L 2647.24,6728.24 L 2641.22,6732.03 L 2635.21,6728.56 L 2635.21,6554.41 Z " />
<path stroke="none" fill="#00144d" transform="matrix(0.05 0 0 0.05 -69 -273)" d="M 2391.84,6307.02 L 2391.84,6293.13 L 2552.92,6386.13 L 2546.9,6396.55 L 2391.84,6307.02 Z " />
<path stroke="none" fill="#00144d" transform="matrix(0.05 0 0 0.05 -69 -273)" d="M 2148.46,6447.54 L 2136.43,6440.59 L 2391.84,6293.13 L 2391.84,6307.02 L 2148.46,6447.54 Z " />
<path stroke="none" fill="#00144d" transform="matrix(0.05 0 0 0.05 -69 -273)" d="M 2148.46,6728.56 L 2142.45,6732.03 L 2136.43,6730.12 L 2136.43,6440.59 L 2148.46,6447.54 L 2148.46,6728.56 Z " />
<path stroke="none" fill="#00144d" transform="matrix(0.05 0 0 0.05 -69 -273)" d="M 2391.84,6869.07 L 2391.84,6882.96 L 2145.22,6740.58 L 2142.45,6732.03 L 2148.46,6728.56 L 2391.84,6869.07 Z " />
<path stroke="none" fill="#00144d" transform="matrix(0.05 0 0 0.05 -69 -273)" d="M 2635.21,6728.56 L 2641.22,6732.03 L 2640.95,6739.14 L 2391.84,6882.96 L 2391.84,6869.07 L 2635.21,6728.56 Z " />
<text x="0" y="0" stroke="none" fill="#00144d" transform="matrix(0.05 0 0 0.05 46.4267 31.1919)" font-style="normal" font-weight="normal" font-size="200px" font-family="Helvetica" >
Me</text>
<path stroke="none" fill="#00144d" transform="matrix(0.05 0 0 0.05 -69 -273)" d="M 2361.84,6115.41 L 2421.84,6115.41 L 2419.69,6127.44 L 2363.98,6127.44 L 2361.84,6115.41 Z " />
<path stroke="none" fill="#00144d" transform="matrix(0.05 0 0 0.05 -69 -273)" d="M 2372.75,6176.64 L 2410.92,6176.64 L 2408.77,6188.67 L 2374.9,6188.67 L 2372.75,6176.64 Z " />
<path stroke="none" fill="#00144d" transform="matrix(0.05 0 0 0.05 -69 -273)" d="M 2383.67,6237.87 L 2400,6237.87 L 2397.85,6249.9 L 2385.82,6249.9 L 2383.67,6237.87 Z " />
<text x="0" y="0" stroke="none" fill="#00144d" transform="matrix(0.05 0 0 0.05 14.5421 45.5903)" font-style="normal" font-weight="normal" font-size="200px" font-family="Helvetica" >
HO</text>
<path stroke="none" fill="#00144d" transform="matrix(0.05 0 0 0.05 -69 -273)" d="M 1969.94,6379.1 L 1999.94,6327.14 L 2009.26,6335.06 L 1981.45,6383.22 L 1969.94,6379.1 Z " />
<path stroke="none" fill="#00144d" transform="matrix(0.05 0 0 0.05 -69 -273)" d="M 2027.17,6399.57 L 2046.28,6366.48 L 2055.6,6374.39 L 2038.69,6403.69 L 2027.17,6399.57 Z " />
<path stroke="none" fill="#00144d" transform="matrix(0.05 0 0 0.05 -69 -273)" d="M 2084.41,6420.03 L 2092.62,6405.82 L 2101.94,6413.73 L 2095.93,6424.15 L 2084.41,6420.03 Z " />
<text x="0" y="0" stroke="none" fill="#00144d" transform="matrix(0.05 0 0 0.05 19.8123 79.6574)" font-style="normal" font-weight="normal" font-size="200px" font-family="Helvetica" >
Me</text>
<path stroke="none" fill="#00144d" transform="matrix(0.05 0 0 0.05 -69 -273)" d="M 2059.28,6936.08 L 2007.32,6906.08 L 2136.43,6730.12 L 2142.45,6732.03 L 2145.22,6740.58 L 2059.28,6936.08 Z " />
<text x="0" y="0" stroke="none" fill="#00144d" transform="matrix(0.05 0 0 0.05 2.05033 67.188)" font-style="normal" font-weight="normal" font-size="200px" font-family="Helvetica" >
Me</text>
<text x="0" y="0" stroke="none" fill="#00144d" transform="matrix(0.05 0 0 0.05 15.9419 69.4878)" font-style="normal" font-weight="normal" font-size="150px" font-family="Helvetica" >
2</text>
<text x="0" y="0" stroke="none" fill="#00144d" transform="matrix(0.05 0 0 0.05 20.1131 67.188)" font-style="normal" font-weight="normal" font-size="200px" font-family="Helvetica" >
N</text>
<path stroke="none" fill="#00144d" transform="matrix(0.05 0 0 0.05 -69 -273)" d="M 1943.78,6762.03 L 1943.78,6702.03 L 1955.82,6703.97 L 1955.82,6760.09 L 1943.78,6762.03 Z " />
<path stroke="none" fill="#00144d" transform="matrix(0.05 0 0 0.05 -69 -273)" d="M 2012.02,6751.01 L 2012.02,6713.05 L 2024.05,6715 L 2024.05,6749.07 L 2012.02,6751.01 Z " />
<path stroke="none" fill="#00144d" transform="matrix(0.05 0 0 0.05 -69 -273)" d="M 2080.25,6739.99 L 2080.25,6724.07 L 2092.28,6726.02 L 2092.28,6738.05 L 2080.25,6739.99 Z " />
</svg>
