<?xml version="1.0" standalone="no" ?>
<!DOCTYPE svg PUBLIC "-//W3C//DTD SVG 1.1//EN" "http://www.w3.org/Graphics/SVG/1.1/DTD/svg11.dtd">
<svg width="295px" height="67px" viewBox="0 0 295 67" style="background-color: #ffffff00" xmlns="http://www.w3.org/2000/svg" xmlns:xlink="http://www.w3.org/1999/xlink" version="1.1" >
<text x="0" y="0" stroke="none" fill="#00144d" transform="matrix(0.05 0 0 0.05 52.4128 38.9904)" font-style="normal" font-weight="normal" font-size="200px" font-family="Helvetica" >
O</text>
<path stroke="none" fill="#00144d" transform="matrix(0.05 0 0 0.05 -77 -125)" d="M 2831.57,3464.48 L 2828.84,3471.48 L 2815,3460.51 L 2718.55,3304.45 L 2728.76,3298.14 L 2831.57,3464.48 Z " />
<path stroke="none" fill="#00144d" transform="matrix(0.05 0 0 0.05 -77 -125)" d="M 2575.6,3434.06 L 2528.84,3395.68 L 2545,3369.56 L 2815,3460.51 L 2828.84,3471.48 L 2829.2,3477.61 L 2575.6,3434.06 Z " />
<path stroke="none" fill="#00144d" transform="matrix(0.05 0 0 0.05 -77 -125)" d="M 2067.53,3235.3 L 2069.84,3226.68 L 2084.43,3236.58 L 2249.29,3463.49 L 2231.64,3490.08 L 2195.11,3484.38 L 2067.53,3235.3 Z " />
<path stroke="none" fill="#00144d" transform="matrix(0.05 0 0 0.05 -77 -125)" d="M 2334.52,3287.85 L 2370.04,3303.08 L 2370.23,3309.32 L 2084.43,3236.58 L 2069.84,3226.68 L 2068.79,3220.22 L 2334.52,3287.85 Z " />
<path stroke="none" fill="#00144d" transform="matrix(0.05 0 0 0.05 -77 -125)" d="M 2370.23,3309.32 L 2370.04,3303.08 L 2370.87,3296.51 L 2563.33,3234.74 L 2566.99,3246.17 L 2370.23,3309.32 Z " />
<text x="0" y="0" stroke="none" fill="#00144d" transform="matrix(0.05 0 0 0.05 13.6128 45.7004)" font-style="normal" font-weight="normal" font-size="200px" font-family="Helvetica" >
O</text>
<path stroke="none" fill="#00144d" transform="matrix(0.05 0 0 0.05 -77 -125)" d="M 1982.49,3289.97 L 1976,3279.88 L 2068.79,3220.22 L 2069.84,3226.68 L 2067.53,3235.3 L 1982.49,3289.97 Z " />
<text x="0" y="0" stroke="none" fill="#00144d" transform="matrix(0.05 0 0 0.05 12.4111 53.1804)" font-style="normal" font-weight="normal" font-size="200px" font-family="Helvetica" >
HO</text>
<path stroke="none" fill="#00144d" transform="matrix(0.05 0 0 0.05 -77 -125)" d="M 2111.99,3497.05 L 2111.89,3485.05 L 2195.11,3484.38 L 2231.64,3490.08 L 2280.06,3495.69 L 2111.99,3497.05 Z " />
<text x="0" y="0" stroke="none" fill="#00144d" transform="matrix(0.05 0 0 0.05 53.6828 56.5204)" font-style="normal" font-weight="normal" font-size="200px" font-family="Helvetica" >
OH</text>
<path stroke="none" fill="#00144d" transform="matrix(0.05 0 0 0.05 -77 -125)" d="M 2619.82,3478.39 L 2611.32,3486.86 L 2538.3,3413.66 L 2528.84,3395.68 L 2575.6,3434.06 L 2619.82,3478.39 Z " />
<path stroke="none" fill="#00144d" transform="matrix(0.05 0 0 0.05 -77 -125)" d="M 2183.34,3192.86 L 2195.13,3186.1 L 2370.87,3296.51 L 2370.04,3303.08 L 2334.52,3287.85 L 2183.34,3192.86 Z " />
<path stroke="none" fill="#00144d" transform="matrix(0.05 0 0 0.05 -77 -125)" d="M 2829.2,3477.61 L 2828.84,3471.48 L 2831.57,3464.48 L 2941.67,3433.58 L 2946.39,3444.72 L 2829.2,3477.61 L 2829.2,3477.61 Z " />
<path stroke="none" fill="#00144d" transform="matrix(0.05 0 0 0.05 -77 -125)" d="M 2280.06,3495.69 L 2231.64,3490.08 L 2249.29,3463.49 L 2545,3369.56 L 2528.84,3395.68 L 2538.3,3413.66 L 2280.06,3495.69 Z " />
<text x="0" y="0" stroke="none" fill="#00144d" transform="matrix(0.05 0 0 0.05 28.2328 27.3904)" font-style="normal" font-weight="normal" font-size="200px" font-family="Helvetica" >
OH</text>
<path stroke="none" fill="#00144d" transform="matrix(0.05 0 0 0.05 -77 -125)" d="M 2179.96,3086.49 L 2191.95,3086.11 L 2195.13,3186.1 L 2183.34,3192.86 L 2179.96,3086.49 Z " />
<path stroke="none" fill="#00144d" transform="matrix(0.05 0 0 0.05 -77 -125)" d="M 1795.37,3297.24 L 1790.84,3308.35 L 1708.03,3274.61 L 1712.8,3263.6 L 1795.37,3297.24 L 1795.37,3297.24 Z " />
<path stroke="#00144d" stroke-width="12" fill="none" transform="matrix(0.05 0 0 0.05 -77 -125)" d="M 2942.84,3302.88 C 2932.67,3307.18 2927.67,3318.36 2931.68,3327.83 C 2935.69,3337.3 2947.19,3341.5 2957.36,3337.2 C 2967.53,3332.9 2979.03,3337.09 2983.04,3346.57 C 2987.05,3356.04 2982.05,3367.22 2971.88,3371.52 C 2961.71,3375.82 2956.72,3387 2960.72,3396.47 C 2964.73,3405.94 2976.24,3410.14 2986.4,3405.84 C 2996.57,3401.54 3008.07,3405.73 3012.08,3415.21 C 3016.09,3424.68 3011.09,3435.86 3000.92,3440.16 C 2990.76,3444.46 2985.76,3455.64 2989.76,3465.11 C 2993.77,3474.58 3005.28,3478.78 3015.44,3474.48 C 3025.61,3470.18 3037.12,3474.37 3041.12,3483.85 C 3045.13,3493.32 3040.13,3504.5 3029.97,3508.8 C 3019.8,3513.1 3014.8,3524.28 3018.81,3533.75 C 3022.81,3543.22 3034.32,3547.42 3044.49,3543.12 " />
<path stroke="#00144d" stroke-width="12" fill="none" transform="matrix(0.05 0 0 0.05 -77 -125)" d="M 1724.44,3106.08 C 1714.31,3101.69 1702.74,3105.85 1698.61,3115.38 C 1694.48,3124.9 1699.34,3136.2 1709.47,3140.59 C 1719.6,3144.98 1724.47,3156.28 1720.34,3165.8 C 1716.21,3175.33 1704.63,3179.49 1694.5,3175.1 C 1684.38,3170.71 1672.8,3174.87 1668.67,3184.4 C 1664.54,3193.92 1669.41,3205.22 1679.54,3209.61 C 1689.67,3214 1694.53,3225.3 1690.4,3234.83 C 1686.27,3244.35 1674.7,3248.52 1664.57,3244.12 C 1654.44,3239.73 1642.87,3243.9 1638.74,3253.42 C 1634.61,3262.94 1639.47,3274.24 1649.6,3278.63 C 1659.73,3283.03 1664.6,3294.32 1660.47,3303.85 C 1656.34,3313.37 1644.76,3317.54 1634.64,3313.14 C 1624.51,3308.75 1612.93,3312.92 1608.8,3322.44 C 1604.67,3331.97 1609.54,3343.26 1619.67,3347.66 C 1629.8,3352.05 1634.66,3363.34 1630.53,3372.87 C 1626.4,3382.39 1614.83,3386.56 1604.7,3382.17 " />
<text x="0" y="0" stroke="none" fill="#00144d" transform="matrix(0.05 0 0 0.05 268.983 47.1354)" font-style="normal" font-weight="normal" font-size="200px" font-family="Helvetica" >
O</text>
<path stroke="none" fill="#00144d" transform="matrix(0.05 0 0 0.05 -77 -125)" d="M 7162.77,3627.38 L 7160.04,3634.38 L 7146.22,3623.41 L 7049.9,3467.38 L 7060.11,3461.08 L 7162.77,3627.38 Z " />
<path stroke="none" fill="#00144d" transform="matrix(0.05 0 0 0.05 -77 -125)" d="M 6906.94,3596.95 L 6860.24,3558.58 L 6876.4,3532.46 L 7146.22,3623.41 L 7160.04,3634.38 L 7160.4,3640.51 L 6906.94,3596.95 Z " />
<path stroke="none" fill="#00144d" transform="matrix(0.05 0 0 0.05 -77 -125)" d="M 6398.74,3398.19 L 6401.04,3389.58 L 6415.64,3399.48 L 6580.68,3626.39 L 6563.04,3652.98 L 6526.5,3647.28 L 6398.74,3398.19 Z " />
<path stroke="none" fill="#00144d" transform="matrix(0.05 0 0 0.05 -77 -125)" d="M 6665.88,3450.74 L 6701.44,3465.98 L 6701.63,3472.22 L 6415.64,3399.48 L 6401.04,3389.58 L 6399.99,3383.12 L 6665.88,3450.74 Z " />
<path stroke="none" fill="#00144d" transform="matrix(0.05 0 0 0.05 -77 -125)" d="M 6701.63,3472.22 L 6701.44,3465.98 L 6702.26,3459.41 L 6894.73,3397.64 L 6898.39,3409.07 L 6701.63,3472.22 Z " />
<text x="0" y="0" stroke="none" fill="#00144d" transform="matrix(0.05 0 0 0.05 230.173 53.8454)" font-style="normal" font-weight="normal" font-size="200px" font-family="Helvetica" >
O</text>
<path stroke="none" fill="#00144d" transform="matrix(0.05 0 0 0.05 -77 -125)" d="M 6313.69,3452.87 L 6307.2,3442.78 L 6399.99,3383.12 L 6401.04,3389.58 L 6398.74,3398.19 L 6313.69,3452.87 Z " />
<text x="0" y="0" stroke="none" fill="#00144d" transform="matrix(0.05 0 0 0.05 228.971 61.3254)" font-style="normal" font-weight="normal" font-size="200px" font-family="Helvetica" >
HO</text>
<path stroke="none" fill="#00144d" transform="matrix(0.05 0 0 0.05 -77 -125)" d="M 6442.19,3659.96 L 6442.09,3647.96 L 6526.5,3647.28 L 6563.04,3652.98 L 6611.45,3658.59 L 6442.19,3659.96 Z " />
<text x="0" y="0" stroke="none" fill="#00144d" transform="matrix(0.05 0 0 0.05 270.243 64.6654)" font-style="normal" font-weight="normal" font-size="200px" font-family="Helvetica" >
OH</text>
<path stroke="none" fill="#00144d" transform="matrix(0.05 0 0 0.05 -77 -125)" d="M 6951.56,3641.74 L 6943.06,3650.21 L 6869.69,3576.56 L 6860.24,3558.58 L 6906.94,3596.95 L 6951.56,3641.74 Z " />
<path stroke="none" fill="#00144d" transform="matrix(0.05 0 0 0.05 -77 -125)" d="M 6514.54,3355.76 L 6526.34,3349 L 6702.26,3459.41 L 6701.44,3465.98 L 6665.88,3450.74 L 6514.54,3355.76 Z " />
<path stroke="none" fill="#00144d" transform="matrix(0.05 0 0 0.05 -77 -125)" d="M 7160.4,3640.51 L 7160.04,3634.38 L 7162.77,3627.38 L 7272.91,3596.35 L 7277.63,3607.49 L 7160.4,3640.51 L 7160.4,3640.51 Z " />
<path stroke="none" fill="#00144d" transform="matrix(0.05 0 0 0.05 -77 -125)" d="M 6611.45,3658.59 L 6563.04,3652.98 L 6580.68,3626.39 L 6876.4,3532.46 L 6860.24,3558.58 L 6869.69,3576.56 L 6611.45,3658.59 Z " />
<text x="0" y="0" stroke="none" fill="#00144d" transform="matrix(0.05 0 0 0.05 244.803 35.5354)" font-style="normal" font-weight="normal" font-size="200px" font-family="Helvetica" >
O</text>
<path stroke="none" fill="#00144d" transform="matrix(0.05 0 0 0.05 -77 -125)" d="M 6511.25,3249.39 L 6523.25,3249.02 L 6526.34,3349 L 6514.54,3355.76 L 6511.25,3249.39 Z " />
<path stroke="none" fill="#00144d" transform="matrix(0.05 0 0 0.05 -77 -125)" d="M 6126.57,3460.14 L 6122.04,3471.25 L 6039.23,3437.51 L 6044,3426.5 L 6126.57,3460.14 L 6126.57,3460.14 Z " />
<path stroke="#00144d" stroke-width="12" fill="none" transform="matrix(0.05 0 0 0.05 -77 -125)" d="M 7274.04,3465.78 C 7263.88,3470.09 7258.88,3481.27 7262.9,3490.74 C 7266.91,3500.21 7278.42,3504.4 7288.58,3500.09 C 7298.75,3495.78 7310.26,3499.97 7314.27,3509.44 C 7318.28,3518.91 7313.29,3530.09 7303.13,3534.4 C 7292.96,3538.71 7287.97,3549.89 7291.99,3559.36 C 7296,3568.83 7307.51,3573.02 7317.67,3568.71 C 7327.84,3564.4 7339.34,3568.59 7343.36,3578.06 C 7347.37,3587.53 7342.38,3598.71 7332.22,3603.02 C 7322.05,3607.33 7317.06,3618.51 7321.08,3627.98 C 7325.09,3637.45 7336.6,3641.64 7346.76,3637.33 C 7356.93,3633.02 7368.43,3637.21 7372.45,3646.68 C 7376.46,3656.15 7371.47,3667.34 7361.31,3671.64 C 7351.14,3675.95 7346.15,3687.14 7350.16,3696.6 C 7354.18,3706.07 7365.69,3710.26 7375.85,3705.95 " />
<path stroke="#00144d" stroke-width="12" fill="none" transform="matrix(0.05 0 0 0.05 -77 -125)" d="M 6055.64,3268.98 C 6045.51,3264.59 6033.94,3268.75 6029.81,3278.28 C 6025.68,3287.8 6030.54,3299.1 6040.67,3303.49 C 6050.8,3307.88 6055.67,3319.18 6051.54,3328.7 C 6047.41,3338.23 6035.83,3342.39 6025.7,3338 C 6015.58,3333.61 6004,3337.77 5999.87,3347.3 C 5995.74,3356.82 6000.61,3368.12 6010.74,3372.51 C 6020.87,3376.9 6025.73,3388.2 6021.6,3397.73 C 6017.47,3407.25 6005.9,3411.42 5995.77,3407.02 C 5985.64,3402.63 5974.07,3406.8 5969.94,3416.32 C 5965.81,3425.84 5970.67,3437.14 5980.8,3441.53 C 5990.93,3445.93 5995.8,3457.22 5991.67,3466.75 C 5987.54,3476.27 5975.96,3480.44 5965.84,3476.04 C 5955.71,3471.65 5944.13,3475.82 5940,3485.34 C 5935.87,3494.87 5940.74,3506.16 5950.87,3510.55 C 5961,3514.95 5965.86,3526.24 5961.73,3535.77 C 5957.6,3545.29 5946.03,3549.46 5935.9,3545.07 " />
<path stroke="none" fill="#c18c33" transform="matrix(0.05 0 0 0.05 -77 -125)" d="M 6688.94,3023.31 L 6695.04,3026.58 L 6695.26,3033.5 L 6607.01,3088.25 L 6600.69,3078.05 L 6688.94,3023.31 Z " />
<text x="0" y="0" stroke="none" fill="#c18c33" transform="matrix(0.05 0 0 0.05 253.811 19.2454)" font-style="normal" font-weight="normal" font-size="200px" font-family="Helvetica" >
COOR</text>
<path stroke="none" fill="#c18c33" transform="matrix(0.05 0 0 0.05 -77 -125)" d="M 6685.82,2922.59 L 6697.81,2922.22 L 6700.93,3022.93 L 6695.04,3026.58 L 6688.94,3023.31 L 6685.82,2922.59 Z " />
<text x="0" y="0" stroke="none" fill="#c18c33" transform="matrix(0.05 0 0 0.05 263.551 34.9554)" font-style="normal" font-weight="normal" font-size="200px" font-family="Helvetica" >
CN</text>
<path stroke="none" fill="#c18c33" transform="matrix(0.05 0 0 0.05 -77 -125)" d="M 6798.22,3075.04 L 6792.56,3085.62 L 6695.26,3033.5 L 6695.04,3026.58 L 6700.93,3022.93 L 6798.22,3075.04 Z " />
<path stroke="none" fill="#000000" transform="matrix(0.05 0 0 0.05 -77 -125)" d="M 5509.57,3280.92 L 3415.37,3280.92 L 3415.37,3268.92 L 5509.57,3268.92 Z " />
<path stroke="none" fill="#000000" transform="matrix(0.05 0 0 0.05 -77 -125)" d="M 5613.57,3274.92 C 5613.57,3274.92 5493.57,3305.92 5493.57,3305.92 C 5493.57,3305.92 5508.57,3288.48 5508.57,3274.92 C 5508.57,3260.92 5493.57,3242.92 5493.57,3242.92 C 5493.57,3242.92 5613.57,3274.92 5613.57,3274.92 C 5613.57,3274.92 5613.57,3274.92 5613.57,3274.92 " />
<path stroke="#000000" stroke-width="1" fill="none" transform="matrix(0.05 0 0 0.05 -77 -125)" d="M 5613.57,3274.92 C 5613.57,3274.92 5493.57,3305.92 5493.57,3305.92 C 5493.57,3305.92 5508.57,3288.48 5508.57,3274.92 C 5508.57,3260.92 5493.57,3242.92 5493.57,3242.92 C 5493.57,3242.92 5613.57,3274.92 5613.57,3274.92 C 5613.57,3274.92 5613.57,3274.92 5613.57,3274.92 " />
<text x="0" y="0" stroke="none" fill="#c18c33" transform="matrix(0.05 0 0 0.05 149.616 9.59477)" font-style="normal" font-weight="normal" font-size="200px" font-family="Helvetica" >
COOR</text>
<path stroke="none" fill="#c18c33" transform="matrix(0.05 0 0 0.05 -77 -125)" d="M 4512.41,2666.44 L 4518.41,2676.83 L 4355.15,2771.1 L 4355.15,2757.24 L 4512.41,2666.44 Z " />
<text x="0" y="0" stroke="none" fill="#c18c33" transform="matrix(0.05 0 0 0.05 117.455 9.59477)" font-style="normal" font-weight="normal" font-size="200px" font-family="Helvetica" >
NC</text>
<path stroke="none" fill="#c18c33" transform="matrix(0.05 0 0 0.05 -77 -125)" d="M 4192.75,2677.33 L 4198.75,2666.94 L 4355.15,2757.24 L 4355.15,2771.1 L 4192.75,2677.33 Z " />
<text x="0" y="0" stroke="none" fill="#c18c33" transform="matrix(0.05 0 0 0.05 137.146 31.1948)" font-style="normal" font-weight="normal" font-size="200px" font-family="Helvetica" >
N</text>
<text x="0" y="0" stroke="none" fill="#c18c33" transform="matrix(0.05 0 0 0.05 144.368 33.4946)" font-style="normal" font-weight="normal" font-size="150px" font-family="Helvetica" >
2</text>
<path stroke="none" fill="#c18c33" transform="matrix(0.05 0 0 0.05 -77 -125)" d="M 4387.07,2947.44 L 4375.07,2947.44 L 4375.07,2749.2 L 4387.07,2749.2 L 4387.07,2947.44 Z " />
<path stroke="none" fill="#c18c33" transform="matrix(0.05 0 0 0.05 -77 -125)" d="M 4335.23,2947.44 L 4323.23,2947.44 L 4323.23,2749.2 L 4335.23,2749.2 L 4335.23,2947.44 Z " />
</svg>
